HIERARCHY
ROOT Hips
{
	OFFSET	0.00	0.00	0.00
	CHANNELS 6 Xposition Yposition Zposition Zrotation Xrotation Yrotation
	JOINT LeftUpperLeg
	{
		OFFSET	 0.100000	-0.066564	-0.000554
		CHANNELS 3 Zrotation Xrotation Yrotation
		JOINT LeftLowerLeg
		{
			OFFSET	 0.002447	-0.463436	-0.005172
			CHANNELS 3 Zrotation Xrotation Yrotation
			JOINT LeftFoot
			{
				OFFSET	-0.002447	-0.420480	-0.020576
				CHANNELS 3 Zrotation Xrotation Yrotation
				JOINT LeftToes
				{
					OFFSET	 0.003734	-0.104922	 0.126407
					CHANNELS 3 Zrotation Xrotation Yrotation
					End Site
					{
						OFFSET	 0.000000	 0.000000	 0.059955
					}
				}
			}
		}
	}
	JOINT RightUpperLeg
	{
		OFFSET	-0.100000	-0.066564	-0.000554
		CHANNELS 3 Zrotation Xrotation Yrotation
		JOINT RightLowerLeg
		{
			OFFSET	-0.002447	-0.463436	-0.005146
			CHANNELS 3 Zrotation Xrotation Yrotation
			JOINT RightFoot
			{
				OFFSET	 0.002447	-0.420479	-0.020602
				CHANNELS 3 Zrotation Xrotation Yrotation
				JOINT RightToes
				{
					OFFSET	-0.003734	-0.104922	 0.126407
					CHANNELS 3 Zrotation Xrotation Yrotation
					End Site
					{
						OFFSET	-0.000000	 0.000000	 0.059955
					}
				}
			}
		}
	}
	JOINT Spine
	{
		OFFSET	 0.000000	 0.099235	-0.012273
		CHANNELS 3 Zrotation Xrotation Yrotation
		JOINT Chest
		{
			OFFSET	-0.000001	 0.116455	-0.014223
			CHANNELS 3 Zrotation Xrotation Yrotation
			JOINT UpperChest
			{
				OFFSET	 0.000001	 0.133602	-0.016265
				CHANNELS 3 Zrotation Xrotation Yrotation
				JOINT LeftShoulder
				{
					OFFSET	 0.061058	 0.091105	 0.007056
					CHANNELS 3 Zrotation Xrotation Yrotation
					JOINT LeftUpperArm
					{
						OFFSET	 0.133942	-0.002659	-0.026009
						CHANNELS 3 Zrotation Xrotation Yrotation
						JOINT LeftLowerArm
						{
							OFFSET	 0.274047	 0.000000	 0.000000
							CHANNELS 3 Zrotation Xrotation Yrotation
							JOINT LeftHand
							{
								OFFSET	 0.276145	 0.000000	 0.000000
								CHANNELS 3 Zrotation Xrotation Yrotation
								End Site
								{
									OFFSET	 0.165687	 0.000000	 0.000000
								}
							}
						}
					}
				}
				JOINT Neck
				{
					OFFSET	 0.000000	 0.150325	 0.007929
					CHANNELS 3 Zrotation Xrotation Yrotation
					JOINT Head
					{
						OFFSET	 0.000000	 0.103218	 0.031424
						CHANNELS 3 Zrotation Xrotation Yrotation
						End Site
						{
							OFFSET	 0.000000	 0.061931	 0.018855
						}
					}
				}
				JOINT RightShoulder
				{
					OFFSET	-0.061057	 0.091105	 0.007056
					CHANNELS 3 Zrotation Xrotation Yrotation
					JOINT RightUpperArm
					{
						OFFSET	-0.133943	-0.002660	-0.026009
						CHANNELS 3 Zrotation Xrotation Yrotation
						JOINT RightLowerArm
						{
							OFFSET	-0.274047	 0.000000	 0.000000
							CHANNELS 3 Zrotation Xrotation Yrotation
							JOINT RightHand
							{
								OFFSET	-0.276145	 0.000000	 0.000000
								CHANNELS 3 Zrotation Xrotation Yrotation
								End Site
								{
									OFFSET	-0.165687	 0.000000	 0.000000
								}
							}
						}
					}
				}
			}
		}
	}
}
MOTION
Frames:    15
Frame Time: 0.03333334
-0.008770	 0.940960	-0.378920	 2.698545	 15.012150	-6.016062	 30.443130	-37.463630	 28.250870	-4.151054	 53.706460	 2.099261	 11.767280	-9.248008	 20.960700	 0.000071	 1.592984	 4.614038	-4.921021	-42.300900	-8.540512	 0.974299	 61.188000	-0.575463	-8.438704	-31.255110	-17.031650	 0.000152	 0.292529	-0.000823	 0.225715	 3.840205	-1.987529	-0.000000	 0.000000	 0.000000	 0.588420	 7.687753	-4.014142	 0.305844	-2.454664	 1.907549	-88.473740	 5.285284	-24.946890	-23.090200	 3.824675	-24.054960	 45.043580	 16.708640	 8.267062	 14.351470	-7.117706	-36.138090	 14.464710	-7.139709	-35.947980	-4.020364	-7.155841	 3.709064	 76.284650	-8.909869	 22.338560	 7.457141	 7.203202	 27.691070	-14.385680	 19.884910	-9.923912
-0.027500	 0.933880	-0.381940	 4.489598	 15.670380	-7.476250	 31.186600	-38.092670	 29.583900	-4.353339	 54.197600	 2.226937	 11.972760	-7.045522	 21.305230	 0.000105	 1.780374	 4.913261	-4.613456	-44.542670	-7.626725	 1.157596	 63.429280	-0.715005	-9.620018	-31.997590	-17.493590	 0.000046	 0.302492	-0.000570	 0.143321	 3.896521	-2.081019	-0.000000	 0.000000	 0.000000	 0.433361	 7.804755	-4.195738	-0.180682	-2.767901	 1.156550	-88.115760	 6.773891	-26.955800	-23.188890	 1.885522	-25.066160	 44.782670	 16.792270	 9.128242	 13.904210	-7.561215	-35.250380	 14.094880	-7.613376	-35.026410	-3.993023	-7.253405	 3.286028	 75.216110	-8.591423	 24.388160	 7.229095	 6.657541	 28.349990	-15.564090	 18.382970	-8.653331
-0.040780	 0.928260	-0.384250	 5.595773	 16.040400	-8.303227	 31.565880	-38.695960	 30.029840	-4.023998	 54.667230	 2.078932	 11.926500	-5.603962	 21.392190	-0.000918	 1.925431	 5.126669	-4.280811	-45.950450	-7.030511	 1.396098	 64.935820	-0.887875	-10.681300	-32.566840	-17.894350	 0.000050	 0.306596	-0.000226	 0.146771	 3.898453	-2.146768	-0.000000	 0.000000	 0.000000	 0.442796	 7.806119	-4.328686	-0.315185	-3.059586	 0.577200	-87.800730	 7.297722	-28.630390	-23.520140	 1.343833	-26.100650	 44.175030	 16.947000	 9.025053	 13.713050	-7.907127	-34.568980	 13.721960	-7.877717	-34.439800	-3.894569	-7.546349	 3.004081	 74.653940	-8.685356	 26.283040	 6.996055	 6.967726	 29.083510	-15.349150	 18.119510	-8.677406
-0.052630	 0.922860	-0.387070	 6.204463	 16.391730	-8.695148	 31.999890	-39.551170	 29.309530	-4.378420	 55.115940	 2.284236	 11.546610	-4.000268	 22.360320	 0.000344	 2.048832	 5.294550	-3.774586	-47.199910	-6.709356	 1.787535	 66.308320	-1.167742	-11.798930	-32.976040	-18.474550	 0.000295	 0.309112	 0.000285	 0.406846	 3.966770	-2.375905	-0.000000	 0.000000	 0.000000	 0.983861	 7.931688	-4.806071	-0.215441	-3.171506	-0.084410	-87.586890	 6.901847	-30.643340	-24.107960	 1.524406	-27.302300	 43.759090	 16.828700	 8.807056	 13.785230	-8.137674	-34.146810	 13.323360	-8.205922	-33.711370	-3.567057	-7.148017	 2.451427	 73.771870	-8.855116	 29.020430	 7.056141	 7.257474	 30.010620	-14.903890	 17.653070	-8.617791
-0.064080	 0.916570	-0.390350	 7.599030	 16.563260	-9.436834	 31.792240	-40.179210	 29.043990	-4.550227	 55.500670	 2.392451	 11.114230	-2.632137	 23.022990	 0.000330	 2.160133	 5.440138	-4.072410	-48.615530	-6.710018	 1.801067	 68.018230	-1.215236	-12.979970	-33.578140	-18.813860	 0.000170	 0.309116	 0.000269	 0.688159	 4.096610	-2.740396	-0.000000	 0.000000	 0.000000	 1.585011	 8.177984	-5.565824	-0.812784	-3.358632	-0.576597	-87.495180	 6.200138	-33.684710	-25.241500	 0.972686	-29.520490	 43.614690	 16.103060	 8.874276	 13.105430	-8.484936	-33.327310	 12.644660	-8.626030	-32.594480	-4.353130	-7.180210	 2.483819	 73.121110	-9.367078	 32.430460	 7.189290	 7.720898	 31.594100	-14.791950	 17.103650	-7.758018
-0.072330	 0.911970	-0.391890	 8.722042	 16.482130	-10.186570	 31.568450	-40.223070	 28.904230	-4.937139	 55.725780	 2.608973	 11.240740	-1.914904	 23.399330	-0.000838	 2.262403	 5.577442	-4.163563	-49.435630	-6.326709	 1.859788	 69.232430	-1.282049	-13.719560	-33.974680	-19.104940	-0.000564	 0.311501	-0.000033	 0.692731	 4.074244	-2.769726	-0.000000	 0.000000	 0.000000	 1.592819	 8.126445	-5.623973	-1.235125	-3.592973	-0.393079	-87.334750	 5.571466	-35.958400	-26.680360	 0.248063	-31.692980	 44.887730	 14.856070	 8.710810	 12.236960	-8.749028	-32.087330	 12.230780	-8.686610	-32.042890	-4.603146	-7.307472	 3.001667	 72.049060	-9.732711	 35.523330	 7.071637	 8.907124	 31.974750	-14.255080	 17.271430	-6.997452
-0.079010	 0.908050	-0.393330	 9.667234	 16.346230	-10.865800	 31.619040	-40.334950	 28.807170	-5.495862	 56.083790	 2.926151	 11.266900	-0.467260	 23.069430	 0.000736	 2.404065	 5.731046	-4.238088	-50.111470	-5.760599	 2.636650	 70.277600	-1.854117	-14.548180	-34.173330	-19.652390	 0.000195	 0.314244	-0.000141	 0.781053	 4.039171	-2.778711	-0.000000	 0.000000	 0.000000	 1.770478	 8.055459	-5.648063	-1.058861	-3.569063	-0.615596	-87.366350	 4.788083	-38.138710	-27.586270	-0.017704	-34.064480	 45.746430	 12.406170	 8.129966	 12.030490	-8.904477	-31.525430	 11.847340	-8.851521	-31.538270	-4.963308	-7.594650	 3.185100	 70.903000	-9.377877	 37.722760	 6.646645	 9.193003	 32.760010	-13.363470	 16.316750	-6.092129
-0.084270	 0.904480	-0.394060	 10.948610	 16.058830	-11.544960	 31.678930	-40.011680	 30.692920	-5.213055	 56.346590	 2.791395	 11.392880	 0.532819	 21.784290	-0.000168	 2.479738	 5.803594	-5.133678	-50.701390	-6.084543	 2.496404	 71.410960	-1.793615	-14.664630	-34.480550	-19.410950	-0.000540	 0.128718	 0.000684	 0.891618	 3.918472	-2.745199	-0.000000	 0.000000	 0.000000	 1.983859	 7.809816	-5.583992	-1.067761	-3.374196	-0.811469	-87.610960	 3.375726	-40.963370	-29.221900	 0.558141	-37.851090	 44.731210	 10.511120	 8.746839	 11.511980	-9.265511	-30.909670	 11.255230	-9.065469	-31.047250	-5.802447	-7.601346	 2.987710	 69.115040	-8.408916	 40.407650	 6.724072	 7.861577	 35.012180	-14.069760	 13.845530	-2.664726
-0.086900	 0.903090	-0.393860	 11.733600	 15.864280	-11.699070	 31.513420	-39.373910	 32.387710	-5.024220	 56.025690	 2.671543	 12.404060	 0.045003	 20.832570	-0.000015	 2.490168	 5.834975	-6.107284	-50.901060	-6.559258	 2.958577	 71.989390	-2.148498	-14.848400	-34.666330	-19.360570	-0.000095	-0.036639	 0.000177	 0.998691	 3.818426	-2.738876	-0.000000	 0.000000	 0.000000	 2.192857	 7.601489	-5.575144	-1.031590	-3.104847	-0.962843	-87.472680	 2.448866	-42.673200	-30.859160	 2.204521	-41.705220	 44.321830	 8.042444	 8.007184	 10.953170	-9.431834	-30.860190	 10.715330	-9.254118	-30.932520	-6.425149	-7.260554	 2.413293	 68.922070	-8.334012	 40.804490	 6.538128	 7.389461	 40.014950	-17.779890	 12.052460	 2.000440
-0.086900	 0.903090	-0.393860	 11.733600	 15.864280	-11.699070	 31.513420	-39.373910	 32.387710	-5.024220	 56.025690	 2.671543	 12.404060	 0.045003	 20.832570	-0.000015	 2.490168	 5.834975	-6.107284	-50.901060	-6.559258	 2.958577	 71.989390	-2.148498	-14.848400	-34.666330	-19.360570	-0.000095	-0.036639	 0.000177	 0.998691	 3.818426	-2.738876	-0.000000	 0.000000	 0.000000	 2.192857	 7.601489	-5.575144	-1.031590	-3.104847	-0.962843	-87.472680	 2.448866	-42.673200	-30.859160	 2.204521	-41.705220	 44.321830	 8.042444	 8.007184	 10.953170	-9.431834	-30.860190	 10.715330	-9.254118	-30.932520	-6.425149	-7.260554	 2.413293	 68.922070	-8.334012	 40.804490	 6.538128	 7.389461	 40.014950	-17.779890	 12.052460	 2.000440
-0.087590	 0.905570	-0.387430	 13.032350	 15.546640	-11.746040	 30.420180	-36.896000	 37.089310	-3.963403	 53.908290	 2.014186	 14.450240	-2.032580	 19.497770	-0.000264	 2.362660	 5.737209	-8.488459	-50.359790	-8.240447	 2.854225	 72.090230	-2.076217	-14.187860	-34.736230	-18.673740	-0.000014	-0.963661	-0.000080	 1.513488	 3.356130	-2.672445	-0.000000	 0.000000	 0.000000	 3.199984	 6.651814	-5.460466	-0.556032	-2.173578	-0.757388	-86.511700	 0.753912	-43.917770	-30.455250	 10.361860	-57.941080	 41.242250	-0.872391	-0.519873	 9.709558	-9.992271	-30.620580	 9.307512	-9.680197	-30.841850	-6.535797	-6.420676	 0.873664	 73.165120	-11.233590	 39.555210	 4.375720	 10.826500	 58.855040	-29.972840	 2.012373	 18.253880
-0.084550	 0.909430	-0.382730	 13.609210	 15.252530	-12.022630	 29.720030	-35.663920	 39.128070	-3.144003	 53.145590	 1.571340	 13.984540	-2.458891	 18.182810	 0.000122	 2.248826	 5.591405	-9.284856	-49.651370	-8.062893	 3.025416	 71.517750	-2.177029	-13.950480	-34.619220	-18.576460	 0.000881	-0.980280	 0.000024	 1.585542	 3.213850	-2.613150	-0.000000	 0.000000	 0.000000	 3.330706	 6.363064	-5.339068	-0.710685	-1.550441	-0.314509	-86.573350	-0.461288	-43.675130	-29.619200	 14.453040	-64.097180	 42.230100	-3.855715	-4.398802	 8.878548	-10.103340	-30.655140	 8.690830	-9.851176	-30.834620	-6.429867	-5.834782	 0.565451	 73.802120	-12.173510	 39.630970	 5.647964	 11.082680	 65.600590	-31.992600	 0.807166	 22.207340
-0.080450	 0.914500	-0.377090	 14.335540	 14.953670	-12.616030	 28.955870	-34.330880	 40.778980	-2.507778	 52.410710	 1.233257	 13.177430	-2.555531	 15.716710	-0.000150	 2.163510	 5.453284	-9.907004	-48.836530	-7.271383	 3.119180	 70.612400	-2.207628	-13.548560	-34.514740	-18.374650	 0.000555	-0.934438	 0.000005	 1.538828	 3.029939	-2.487463	-0.000000	 0.000000	 0.000000	 3.222450	 6.001124	-5.078436	-0.977119	-1.076366	 0.405143	-86.945250	-2.407271	-43.033930	-28.423170	 18.533650	-69.119280	 42.692330	-7.792470	-9.460736	 8.069247	-10.250260	-30.567950	 8.089968	-9.918126	-30.870990	-6.311593	-5.369385	 0.343425	 75.369860	-13.898840	 39.912230	 6.141039	 12.892980	 70.662960	-33.302760	-0.496128	 25.387850
-0.074040	 0.922370	-0.368500	 14.561230	 14.498640	-12.683720	 27.568560	-33.055360	 40.692720	-2.149587	 51.347320	 1.032870	 12.959230	-2.190111	 14.112920	 0.000599	 2.152286	 5.403559	-10.768840	-47.083680	-7.107162	 3.040943	 68.970860	-2.087173	-12.552090	-34.525870	-17.697080	 0.001080	-0.562994	 0.000346	 1.657718	 2.788994	-2.427012	-0.000000	 0.000000	 0.000000	 3.446420	 5.516712	-4.953418	-0.903801	-0.222441	 0.752138	-87.092990	-4.099416	-41.546250	-25.988980	 21.748520	-76.230140	 40.652220	-10.361010	-14.674390	 7.539962	-10.281120	-30.948000	 7.237819	-9.839973	-31.157450	-5.530206	-4.701639	-0.465519	 76.634570	-15.704620	 39.754780	 6.018389	 15.494710	 77.883380	-33.665130	-0.918423	 25.959490
-0.068450	 0.928900	-0.362070	 14.560340	 14.098660	-12.630470	 26.243040	-32.172950	 39.918570	-2.192025	 50.312310	 1.028644	 12.780910	-1.494865	 14.553890	-0.000342	 2.138095	 5.369319	-11.353930	-45.572770	-7.191260	 2.697331	 67.521990	-1.802186	-11.555410	-34.337520	-17.048930	 0.000043	-0.579017	-0.001002	 1.719167	 2.645809	-2.409395	-0.000000	 0.000000	 0.000000	 3.560702	 5.225581	-4.913219	-1.234306	 0.557795	 1.099730	-87.514850	-6.068838	-40.408340	-25.586650	 24.915680	-79.781060	 40.085320	-11.320000	-15.950250	 6.756706	-10.006820	-31.314760	 6.603165	-9.734583	-31.398590	-5.267300	-4.093832	-1.104823	 76.984250	-16.322700	 39.281800	 6.602559	 16.909750	 81.327570	-34.124830	-0.122749	 26.200300
